<?xml version="1.0" encoding="UTF-8"?><svg id="a" xmlns="http://www.w3.org/2000/svg" viewBox="0 0 739.66 187.91"><defs><style>.b{fill:#fff;}</style></defs><path class="b" d="M358.83,58.92h-31.5c-2.15-3.68-2.1-7.54-4.67-11.33-9.41-13.88-47.02-13.27-50.6,4.06-5.03,24.35,29.8,25.74,45.99,30.56,27.49,8.17,49.08,25.31,42.66,57.1-8.03,39.81-61.39,45.37-93.41,34.65-21.94-7.34-35.02-25.84-35.47-49.03h33c2.6,22.83,27.22,28.72,46.45,22.95,13.25-3.98,22.83-20.42,10.58-30.47-21.76-17.85-80.7-8.97-85.01-51.99-7.26-72.39,121.46-76.23,121.99-6.49Z"/><polygon class="b" points="493.83 10.92 493.83 39.92 419.83 39.92 419.83 84.92 486.83 84.92 486.83 112.92 419.83 112.92 419.83 175.92 385.83 175.92 385.83 10.92 493.83 10.92"/><polygon class="b" points="166.83 39.92 166.83 175.92 131.83 175.92 131.83 39.92 81.83 39.92 81.83 12.42 83.33 10.92 215.33 10.92 216.83 12.42 216.83 38.42 215.33 39.92 166.83 39.92"/><polygon class="b" points="70.83 .93 34.23 96.41 68.36 183.89 68.83 187.91 35.49 186.96 0 95.66 35.92 0 70.83 .93"/><path class="b" d="M553.33,10.92c6.74,9.93,13.68,19.83,19.92,30.08,4.86,8,8.69,17.08,13.34,24.63.48.78-.26,1.69,1.73,1.29,9.07-19.98,21.63-38,34.01-56.01h37.5l-52.03,80.43,57.03,84.57h-39.5c-13.7-19.27-27.23-38.92-38-60.01-11.07,21.17-25.27,40.51-39,60.01h-38.5l57.96-84.51-52.96-80.49h38.5Z"/><polygon class="b" points="703.74 0 739.66 97.17 704.69 186.78 670.83 187.91 671.3 183.89 705.43 96.41 668.83 .93 703.74 0"/></svg>